<svg id="Layer_1" data-name="Layer 1" xmlns="http://www.w3.org/2000/svg" xmlns:xlink="http://www.w3.org/1999/xlink" viewBox="0 0 627.52 486.16"><defs><style>.cls-1{fill:url(#linear-gradient);}.cls-2{fill:url(#linear-gradient-2);}.cls-3{opacity:0.06;}.cls-14,.cls-4{fill:#fff;}.cls-5{opacity:0.23;fill:url(#linear-gradient-3);}.cls-16,.cls-6{stroke:aqua;opacity:0.4;}.cls-12,.cls-14,.cls-16,.cls-6,.cls-9{stroke-miterlimit:10;}.cls-6{fill:url(#linear-gradient-4);}.cls-11,.cls-7{opacity:0.5;}.cls-7{fill:url(#linear-gradient-5);}.cls-8{opacity:0.7;}.cls-12,.cls-14,.cls-9{stroke:#fff;}.cls-10,.cls-12,.cls-9{opacity:0.31;}.cls-9{fill:url(#linear-gradient-6);}.cls-10{fill:aqua;}.cls-11{fill:url(#linear-gradient-7);}.cls-12{fill:url(#linear-gradient-8);}.cls-13{opacity:0.85;}.cls-15{fill:red;}.cls-16{fill:url(#linear-gradient-9);}</style><linearGradient id="linear-gradient" x1="467.98" y1="357.27" x2="853" y2="357.27" gradientUnits="userSpaceOnUse"><stop offset="0" stop-color="#0097d4"/><stop offset="1" stop-color="#005bd4"/></linearGradient><linearGradient id="linear-gradient-2" x1="456.98" y1="357.42" x2="843.99" y2="357.42" gradientUnits="userSpaceOnUse"><stop offset="0" stop-color="#3be9ff"/><stop offset="0.24" stop-color="#2ed6fa"/><stop offset="0.72" stop-color="#0ea6ee"/><stop offset="0.91" stop-color="#0092e9"/></linearGradient><linearGradient id="linear-gradient-3" x1="523.81" y1="526.34" x2="833.42" y2="526.34" gradientTransform="matrix(0.77, 0.46, -0.35, 0.57, 280.67, -149.93)" gradientUnits="userSpaceOnUse"><stop offset="0" stop-color="#000994"/><stop offset="1" stop-color="#3a1555"/></linearGradient><linearGradient id="linear-gradient-4" x1="355.98" y1="357.42" x2="742.99" y2="357.42" xlink:href="#linear-gradient-2"/><linearGradient id="linear-gradient-5" x1="478.68" y1="87.98" x2="650.68" y2="87.98" gradientTransform="matrix(0.8, 1.19, -0.05, 0.88, 157.79, -354.15)" gradientUnits="userSpaceOnUse"><stop offset="0" stop-color="#3b97ff"/><stop offset="0.31" stop-color="#2f84f9"/><stop offset="0.89" stop-color="#1258e9"/></linearGradient><linearGradient id="linear-gradient-6" x1="566.35" y1="425.34" x2="627.44" y2="425.34" gradientTransform="matrix(0.45, 1.06, -0.6, 0.8, 583.8, -627.12)" gradientUnits="userSpaceOnUse"><stop offset="0" stop-color="#5548ff"/><stop offset="0.24" stop-color="#423af3"/><stop offset="0.72" stop-color="#1215d5"/><stop offset="0.89" stop-color="#0007c9"/></linearGradient><linearGradient id="linear-gradient-7" x1="149.64" y1="437.71" x2="321.64" y2="437.71" gradientTransform="matrix(0.8, 1.16, -0.05, 0.88, 157.79, -344.46)" xlink:href="#linear-gradient-5"/><linearGradient id="linear-gradient-8" x1="283.45" y1="528.26" x2="344.54" y2="528.26" gradientTransform="matrix(0.45, 1.06, -0.6, 0.8, 495.57, -488.79)" xlink:href="#linear-gradient-6"/><linearGradient id="linear-gradient-9" x1="225.98" y1="357.42" x2="612.99" y2="357.42" xlink:href="#linear-gradient-2"/></defs><g id="computer"><path class="cls-1" d="M845,332.75,489,116.11a8.15,8.15,0,0,0-3.44-1.24h0a5.3,5.3,0,0,0-.69,0l-8-.31a1.38,1.38,0,0,0-1.17,2.19l3.94,5.41a1.41,1.41,0,0,1,.27.88L468,365.94c-.27,5.52,3.32,12.32,8,15.19L822.27,593.32a1.41,1.41,0,0,1,.4.37l4.18,5.74A1.36,1.36,0,0,0,828,600h9.3a1.39,1.39,0,0,0,1.38-1.31h0a1.41,1.41,0,0,1,.26-.74,7.83,7.83,0,0,0,1.2-4l12.88-246C853.27,342.4,849.7,335.61,845,332.75Z" transform="translate(-225.48 -114.34)"/><path class="cls-2" d="M831,593.94l12.94-246c.29-5.51-3.3-12.3-8-15.16L478.05,116.11c-4.72-2.86-8.77-.71-9,4.81l-12,245c-.27,5.52,3.33,12.32,8.05,15.19L822,598.72C826.68,601.6,830.74,599.46,831,593.94Z" transform="translate(-225.48 -114.34)"/><g class="cls-3"><polygon class="cls-4" points="398.28 363.55 476.7 411.36 434.63 111.96 356.25 64.52 398.28 363.55"/><polygon class="cls-4" points="497.89 150.26 473.48 135.48 515.58 435.06 540.01 449.95 497.89 150.26"/><path class="cls-4" d="M491.82,397.46l49.28,30-42-298.64-21.08-12.75c-4.72-2.86-8.77-.71-9,4.81l-4.15,84.68Z" transform="translate(-225.48 -114.34)"/><path class="cls-4" d="M836,332.75l-38.9-23.55,35.62,253.46L844,347.91C844.26,342.4,840.67,335.61,836,332.75Z" transform="translate(-225.48 -114.34)"/></g><path class="cls-5" d="M730.54,535.07,502.81,393.15c-2.13-1.32-3.07-3.66-2.1-5.19h0c1-1.53,3.49-1.7,5.61-.38L734.06,529.5c2.13,1.33,3.07,3.66,2.1,5.19h0C735.2,536.22,732.67,536.39,730.54,535.07Z" transform="translate(-225.48 -114.34)"/></g><g id="screen2"><path class="cls-6" d="M730,593.94l12.94-246c.29-5.51-3.3-12.3-8-15.16L377.05,116.11c-4.72-2.86-8.77-.71-9,4.81l-12,245c-.27,5.52,3.33,12.32,8.05,15.19L721,598.72C725.68,601.6,729.74,599.46,730,593.94Z" transform="translate(-225.48 -114.34)"/><g id="glare_2" class="cls-3"><polygon class="cls-4" points="298.28 363.55 376.7 411.36 334.63 111.96 256.25 64.52 298.28 363.55"/><polygon class="cls-4" points="397.89 150.26 373.48 135.48 415.58 435.06 440.01 449.95 397.89 150.26"/><path class="cls-4" d="M391.82,397.46l49.28,30-42-298.64-21.08-12.75c-4.72-2.86-8.77-.71-9,4.81l-4.15,84.68Z" transform="translate(-225.48 -114.34)"/><path class="cls-4" d="M736,332.75l-38.9-23.55,35.62,253.46L744,347.91C744.26,342.4,740.67,335.61,736,332.75Z" transform="translate(-225.48 -114.34)"/></g></g><path id="Profile_back" class="cls-7" d="M657,530.55,539.32,456.48c-7-4.4-12.39-12.66-12.09-18.46l9.48-181.51c.3-5.8,6.21-6.95,13.18-2.56L667.54,328c7,4.39,12.39,12.66,12.08,18.46L670.14,528C669.84,533.79,663.94,534.94,657,530.55Z" transform="translate(-225.48 -114.34)"/><g id="text_1"><path class="cls-4" d="M548.64,376.16l-2.76-1.65.09-.68,2.76,1.65Z" transform="translate(-225.48 -114.34)"/><path class="cls-4" d="M552.66,378.58l-2.76-1.66.09-.68,2.76,1.66Z" transform="translate(-225.48 -114.34)"/><path class="cls-4" d="M556.68,381l-2.76-1.65.09-.68,2.76,1.65Z" transform="translate(-225.48 -114.34)"/><path class="cls-4" d="M560.7,383.41l-2.76-1.66.09-.68,2.76,1.66Z" transform="translate(-225.48 -114.34)"/><path class="cls-4" d="M564.72,385.82,562,384.17l.09-.68,2.76,1.65Z" transform="translate(-225.48 -114.34)"/><path class="cls-4" d="M568.74,388.24,566,386.58l.09-.68,2.76,1.66Z" transform="translate(-225.48 -114.34)"/><path class="cls-4" d="M572.76,390.66,570,389l.09-.68,2.76,1.65Z" transform="translate(-225.48 -114.34)"/><path class="cls-4" d="M576.78,393.07,574,391.41l.09-.68,2.76,1.66Z" transform="translate(-225.48 -114.34)"/><path class="cls-4" d="M580.8,395.49,578,393.83l.09-.68,2.75,1.65Z" transform="translate(-225.48 -114.34)"/><path class="cls-4" d="M584.82,397.9l-2.76-1.66.09-.68,2.75,1.66Z" transform="translate(-225.48 -114.34)"/><path class="cls-4" d="M588.84,400.32l-2.76-1.66.09-.68,2.75,1.65Z" transform="translate(-225.48 -114.34)"/><path class="cls-4" d="M592.86,402.73l-2.76-1.66.08-.68,2.76,1.66Z" transform="translate(-225.48 -114.34)"/><path class="cls-4" d="M596.88,405.15l-2.76-1.66.08-.68,2.76,1.66Z" transform="translate(-225.48 -114.34)"/><path class="cls-4" d="M600.9,407.56l-2.76-1.66.08-.68,2.76,1.66Z" transform="translate(-225.48 -114.34)"/><path class="cls-4" d="M604.92,410l-2.76-1.66.08-.68L605,409.3Z" transform="translate(-225.48 -114.34)"/><path class="cls-4" d="M608.94,412.39l-2.76-1.66.08-.68,2.76,1.66Z" transform="translate(-225.48 -114.34)"/><path class="cls-4" d="M613,414.81l-2.76-1.66.08-.68,2.76,1.66Z" transform="translate(-225.48 -114.34)"/><path class="cls-4" d="M617,417.22l-2.76-1.65.08-.69,2.76,1.66Z" transform="translate(-225.48 -114.34)"/><path class="cls-4" d="M621,419.64,618.24,418l.08-.68,2.76,1.66Z" transform="translate(-225.48 -114.34)"/><path class="cls-4" d="M625,422.05l-2.76-1.65.08-.69,2.76,1.66Z" transform="translate(-225.48 -114.34)"/><path class="cls-4" d="M629,424.47l-2.76-1.66.08-.68,2.76,1.66Z" transform="translate(-225.48 -114.34)"/><path class="cls-4" d="M633.06,426.88l-2.76-1.65.08-.69,2.76,1.66Z" transform="translate(-225.48 -114.34)"/><path class="cls-4" d="M637.08,429.3l-2.76-1.66.08-.68,2.76,1.66Z" transform="translate(-225.48 -114.34)"/><path class="cls-4" d="M641.1,431.71l-2.76-1.65.08-.68,2.76,1.65Z" transform="translate(-225.48 -114.34)"/><path class="cls-4" d="M548.64,390.56l-2.76-1.65.09-.69,2.76,1.66Z" transform="translate(-225.48 -114.34)"/><path class="cls-4" d="M552.66,393l-2.76-1.66.09-.68,2.76,1.66Z" transform="translate(-225.48 -114.34)"/><path class="cls-4" d="M556.68,395.39l-2.76-1.65.09-.69,2.76,1.66Z" transform="translate(-225.48 -114.34)"/><path class="cls-4" d="M560.7,397.81l-2.76-1.66.09-.68,2.76,1.66Z" transform="translate(-225.48 -114.34)"/><path class="cls-4" d="M564.72,400.22,562,398.57l.09-.68,2.76,1.65Z" transform="translate(-225.48 -114.34)"/><path class="cls-4" d="M568.74,402.64,566,401l.09-.68,2.76,1.66Z" transform="translate(-225.48 -114.34)"/><path class="cls-4" d="M572.76,405.05,570,403.4l.09-.68,2.76,1.65Z" transform="translate(-225.48 -114.34)"/><path class="cls-4" d="M576.78,407.47,574,405.81l.09-.68,2.76,1.66Z" transform="translate(-225.48 -114.34)"/><path class="cls-4" d="M580.8,409.89,578,408.23l.09-.68,2.75,1.65Z" transform="translate(-225.48 -114.34)"/><path class="cls-4" d="M584.82,412.3l-2.76-1.66.09-.68,2.75,1.66Z" transform="translate(-225.48 -114.34)"/><path class="cls-4" d="M588.84,414.72l-2.76-1.66.09-.68,2.75,1.66Z" transform="translate(-225.48 -114.34)"/><path class="cls-4" d="M592.86,417.13l-2.76-1.66.08-.68,2.76,1.66Z" transform="translate(-225.48 -114.34)"/><path class="cls-4" d="M596.88,419.55l-2.76-1.66.08-.68,2.76,1.66Z" transform="translate(-225.48 -114.34)"/><path class="cls-4" d="M600.9,422l-2.76-1.66.08-.68,2.76,1.66Z" transform="translate(-225.48 -114.34)"/><path class="cls-4" d="M604.92,424.38l-2.76-1.66.08-.68L605,423.7Z" transform="translate(-225.48 -114.34)"/><path class="cls-4" d="M608.94,426.79l-2.76-1.66.08-.68,2.76,1.66Z" transform="translate(-225.48 -114.34)"/><path class="cls-4" d="M613,429.21l-2.76-1.66.08-.68,2.76,1.66Z" transform="translate(-225.48 -114.34)"/><path class="cls-4" d="M617,431.62,614.22,430l.08-.68,2.76,1.66Z" transform="translate(-225.48 -114.34)"/><path class="cls-4" d="M621,434l-2.76-1.66.08-.68,2.76,1.66Z" transform="translate(-225.48 -114.34)"/><path class="cls-4" d="M625,436.45l-2.76-1.65.08-.69,2.76,1.66Z" transform="translate(-225.48 -114.34)"/><path class="cls-4" d="M629,438.87l-2.76-1.66.08-.68,2.76,1.66Z" transform="translate(-225.48 -114.34)"/><path class="cls-4" d="M633.06,441.28l-2.76-1.65.08-.68,2.76,1.65Z" transform="translate(-225.48 -114.34)"/><path class="cls-4" d="M637.08,443.7,634.32,442l.08-.68,2.76,1.66Z" transform="translate(-225.48 -114.34)"/><path class="cls-4" d="M641.1,446.11l-2.76-1.65.08-.68,2.76,1.65Z" transform="translate(-225.48 -114.34)"/><path class="cls-4" d="M548.64,405l-2.76-1.65.09-.68,2.76,1.65Z" transform="translate(-225.48 -114.34)"/><path class="cls-4" d="M552.66,407.38l-2.76-1.66L550,405l2.76,1.66Z" transform="translate(-225.48 -114.34)"/><path class="cls-4" d="M556.68,409.79l-2.76-1.65.09-.68,2.76,1.65Z" transform="translate(-225.48 -114.34)"/><path class="cls-4" d="M560.7,412.21l-2.76-1.66.09-.68,2.76,1.66Z" transform="translate(-225.48 -114.34)"/><path class="cls-4" d="M564.72,414.63,562,413l.09-.68,2.76,1.65Z" transform="translate(-225.48 -114.34)"/><path class="cls-4" d="M568.74,417,566,415.38l.09-.68,2.76,1.66Z" transform="translate(-225.48 -114.34)"/><path class="cls-4" d="M572.76,419.46,570,417.8l.09-.68,2.76,1.65Z" transform="translate(-225.48 -114.34)"/><path class="cls-4" d="M576.78,421.87,574,420.21l.09-.68,2.76,1.66Z" transform="translate(-225.48 -114.34)"/><path class="cls-4" d="M580.8,424.29,578,422.63l.09-.68,2.75,1.65Z" transform="translate(-225.48 -114.34)"/><path class="cls-4" d="M584.82,426.7,582.06,425l.09-.68L584.9,426Z" transform="translate(-225.48 -114.34)"/><path class="cls-4" d="M588.84,429.12l-2.76-1.66.09-.68,2.75,1.66Z" transform="translate(-225.48 -114.34)"/><path class="cls-4" d="M592.86,431.53l-2.76-1.66.08-.68,2.76,1.66Z" transform="translate(-225.48 -114.34)"/><path class="cls-4" d="M596.88,434l-2.76-1.66.08-.68,2.76,1.66Z" transform="translate(-225.48 -114.34)"/><path class="cls-4" d="M600.9,436.36l-2.76-1.66.08-.68,2.76,1.66Z" transform="translate(-225.48 -114.34)"/><path class="cls-4" d="M604.92,438.78l-2.76-1.66.08-.68L605,438.1Z" transform="translate(-225.48 -114.34)"/><path class="cls-4" d="M608.94,441.19l-2.76-1.65.08-.69,2.76,1.66Z" transform="translate(-225.48 -114.34)"/><path class="cls-4" d="M613,443.61,610.2,442l.08-.68,2.76,1.66Z" transform="translate(-225.48 -114.34)"/><path class="cls-4" d="M617,446l-2.76-1.65.08-.69,2.76,1.66Z" transform="translate(-225.48 -114.34)"/><path class="cls-4" d="M621,448.44l-2.76-1.66.08-.68,2.76,1.66Z" transform="translate(-225.48 -114.34)"/><path class="cls-4" d="M625,450.85l-2.76-1.65.08-.69,2.76,1.66Z" transform="translate(-225.48 -114.34)"/><path class="cls-4" d="M629,453.27l-2.76-1.66.08-.68,2.76,1.66Z" transform="translate(-225.48 -114.34)"/><path class="cls-4" d="M633.06,455.68,630.3,454l.08-.68,2.76,1.65Z" transform="translate(-225.48 -114.34)"/><path class="cls-4" d="M637.08,458.1l-2.76-1.66.08-.68,2.76,1.66Z" transform="translate(-225.48 -114.34)"/><path class="cls-4" d="M641.1,460.51l-2.76-1.65.08-.68,2.76,1.65Z" transform="translate(-225.48 -114.34)"/><path class="cls-4" d="M548.64,419.36l-2.76-1.65L546,417l2.76,1.65Z" transform="translate(-225.48 -114.34)"/><path class="cls-4" d="M552.66,421.78l-2.76-1.66.09-.68,2.76,1.66Z" transform="translate(-225.48 -114.34)"/><path class="cls-4" d="M556.68,424.19l-2.76-1.65.09-.68,2.76,1.65Z" transform="translate(-225.48 -114.34)"/><path class="cls-4" d="M560.7,426.61,557.94,425l.09-.68,2.76,1.66Z" transform="translate(-225.48 -114.34)"/><path class="cls-4" d="M564.72,429,562,427.37l.09-.68,2.76,1.65Z" transform="translate(-225.48 -114.34)"/><path class="cls-4" d="M568.74,431.44,566,429.78l.09-.68,2.76,1.66Z" transform="translate(-225.48 -114.34)"/><path class="cls-4" d="M572.76,433.86,570,432.2l.09-.68,2.76,1.65Z" transform="translate(-225.48 -114.34)"/><path class="cls-4" d="M576.78,436.27,574,434.61l.09-.68,2.76,1.66Z" transform="translate(-225.48 -114.34)"/><path class="cls-4" d="M580.8,438.69,578,437l.09-.68,2.75,1.65Z" transform="translate(-225.48 -114.34)"/><path class="cls-4" d="M584.82,441.1l-2.76-1.66.09-.68,2.75,1.66Z" transform="translate(-225.48 -114.34)"/><path class="cls-4" d="M588.84,443.52l-2.76-1.66.09-.68,2.75,1.65Z" transform="translate(-225.48 -114.34)"/><path class="cls-4" d="M592.86,445.93l-2.76-1.66.08-.68,2.76,1.66Z" transform="translate(-225.48 -114.34)"/><path class="cls-4" d="M596.88,448.35l-2.76-1.66.08-.68,2.76,1.66Z" transform="translate(-225.48 -114.34)"/><path class="cls-4" d="M600.9,450.76l-2.76-1.66.08-.68,2.76,1.66Z" transform="translate(-225.48 -114.34)"/><path class="cls-4" d="M604.92,453.18l-2.76-1.66.08-.68L605,452.5Z" transform="translate(-225.48 -114.34)"/><path class="cls-4" d="M608.94,455.59l-2.76-1.66.08-.68,2.76,1.66Z" transform="translate(-225.48 -114.34)"/><path class="cls-4" d="M613,458l-2.76-1.66.08-.68,2.76,1.66Z" transform="translate(-225.48 -114.34)"/><path class="cls-4" d="M617,460.42l-2.76-1.65.08-.69,2.76,1.66Z" transform="translate(-225.48 -114.34)"/><path class="cls-4" d="M621,462.84l-2.76-1.66.08-.68,2.76,1.66Z" transform="translate(-225.48 -114.34)"/><path class="cls-4" d="M625,465.25l-2.76-1.65.08-.69,2.76,1.66Z" transform="translate(-225.48 -114.34)"/><path class="cls-4" d="M629,467.67,626.28,466l.08-.68,2.76,1.66Z" transform="translate(-225.48 -114.34)"/><path class="cls-4" d="M633.06,470.08l-2.76-1.65.08-.68,2.76,1.65Z" transform="translate(-225.48 -114.34)"/><path class="cls-4" d="M637.08,472.5l-2.76-1.66.08-.68,2.76,1.66Z" transform="translate(-225.48 -114.34)"/><path class="cls-4" d="M641.1,474.91l-2.76-1.65.08-.68,2.76,1.65Z" transform="translate(-225.48 -114.34)"/><path class="cls-4" d="M548.64,433.76l-2.76-1.65.09-.69,2.76,1.66Z" transform="translate(-225.48 -114.34)"/><path class="cls-4" d="M552.66,436.18l-2.76-1.66.09-.68,2.76,1.66Z" transform="translate(-225.48 -114.34)"/><path class="cls-4" d="M556.68,438.59l-2.76-1.65.09-.69,2.76,1.66Z" transform="translate(-225.48 -114.34)"/><path class="cls-4" d="M560.7,441l-2.76-1.66.09-.68,2.76,1.66Z" transform="translate(-225.48 -114.34)"/><path class="cls-4" d="M564.72,443.42,562,441.77l.09-.68,2.76,1.65Z" transform="translate(-225.48 -114.34)"/><path class="cls-4" d="M568.74,445.84,566,444.18l.09-.68,2.76,1.66Z" transform="translate(-225.48 -114.34)"/><path class="cls-4" d="M572.76,448.26,570,446.6l.09-.68,2.76,1.65Z" transform="translate(-225.48 -114.34)"/><path class="cls-4" d="M576.78,450.67,574,449l.09-.68,2.76,1.66Z" transform="translate(-225.48 -114.34)"/><path class="cls-4" d="M580.8,453.09,578,451.43l.09-.68,2.75,1.65Z" transform="translate(-225.48 -114.34)"/><path class="cls-4" d="M584.82,455.5l-2.76-1.66.09-.68,2.75,1.66Z" transform="translate(-225.48 -114.34)"/><path class="cls-4" d="M588.84,457.92l-2.76-1.66.09-.68,2.75,1.66Z" transform="translate(-225.48 -114.34)"/><path class="cls-4" d="M592.86,460.33l-2.76-1.66.08-.68,2.76,1.66Z" transform="translate(-225.48 -114.34)"/><path class="cls-4" d="M596.88,462.75l-2.76-1.66.08-.68,2.76,1.66Z" transform="translate(-225.48 -114.34)"/><path class="cls-4" d="M600.9,465.16l-2.76-1.66.08-.68,2.76,1.66Z" transform="translate(-225.48 -114.34)"/><path class="cls-4" d="M604.92,467.58l-2.76-1.66.08-.68L605,466.9Z" transform="translate(-225.48 -114.34)"/><path class="cls-4" d="M608.94,470l-2.76-1.66.08-.68,2.76,1.66Z" transform="translate(-225.48 -114.34)"/><path class="cls-4" d="M613,472.41l-2.76-1.66.08-.68,2.76,1.66Z" transform="translate(-225.48 -114.34)"/><path class="cls-4" d="M617,474.82l-2.76-1.65.08-.69,2.76,1.66Z" transform="translate(-225.48 -114.34)"/><path class="cls-4" d="M621,477.24l-2.76-1.66.08-.68,2.76,1.66Z" transform="translate(-225.48 -114.34)"/><path class="cls-4" d="M625,479.65,622.26,478l.08-.69L625.1,479Z" transform="translate(-225.48 -114.34)"/><path class="cls-4" d="M629,482.07l-2.76-1.66.08-.68,2.76,1.66Z" transform="translate(-225.48 -114.34)"/><path class="cls-4" d="M633.06,484.48l-2.76-1.65.08-.68,2.76,1.65Z" transform="translate(-225.48 -114.34)"/><path class="cls-4" d="M637.08,486.9l-2.76-1.66.08-.68,2.76,1.66Z" transform="translate(-225.48 -114.34)"/><path class="cls-4" d="M641.1,489.31l-2.76-1.65.08-.68,2.76,1.65Z" transform="translate(-225.48 -114.34)"/><path class="cls-4" d="M548.64,448.16l-2.76-1.65.09-.68,2.76,1.65Z" transform="translate(-225.48 -114.34)"/><path class="cls-4" d="M552.66,450.58l-2.76-1.66.09-.68,2.76,1.66Z" transform="translate(-225.48 -114.34)"/><path class="cls-4" d="M556.68,453l-2.76-1.65.09-.68,2.76,1.65Z" transform="translate(-225.48 -114.34)"/><path class="cls-4" d="M560.7,455.41l-2.76-1.66.09-.68,2.76,1.66Z" transform="translate(-225.48 -114.34)"/><path class="cls-4" d="M564.72,457.82,562,456.17l.09-.68,2.76,1.65Z" transform="translate(-225.48 -114.34)"/><path class="cls-4" d="M568.74,460.24,566,458.58l.09-.68,2.76,1.66Z" transform="translate(-225.48 -114.34)"/><path class="cls-4" d="M572.76,462.66,570,461l.09-.68,2.76,1.65Z" transform="translate(-225.48 -114.34)"/><path class="cls-4" d="M576.78,465.07,574,463.41l.09-.68,2.76,1.66Z" transform="translate(-225.48 -114.34)"/><path class="cls-4" d="M580.8,467.49,578,465.83l.09-.68,2.75,1.65Z" transform="translate(-225.48 -114.34)"/><path class="cls-4" d="M584.82,469.9l-2.76-1.66.09-.68,2.75,1.66Z" transform="translate(-225.48 -114.34)"/><path class="cls-4" d="M588.84,472.32l-2.76-1.66.09-.68,2.75,1.65Z" transform="translate(-225.48 -114.34)"/><path class="cls-4" d="M592.86,474.73l-2.76-1.66.08-.68,2.76,1.66Z" transform="translate(-225.48 -114.34)"/><path class="cls-4" d="M596.88,477.15l-2.76-1.66.08-.68,2.76,1.66Z" transform="translate(-225.48 -114.34)"/><path class="cls-4" d="M600.9,479.56l-2.76-1.66.08-.68,2.76,1.66Z" transform="translate(-225.48 -114.34)"/><path class="cls-4" d="M604.92,482l-2.76-1.66.08-.68L605,481.3Z" transform="translate(-225.48 -114.34)"/><path class="cls-4" d="M608.94,484.39l-2.76-1.66.08-.68,2.76,1.66Z" transform="translate(-225.48 -114.34)"/><path class="cls-4" d="M613,486.81l-2.76-1.66.08-.68,2.76,1.66Z" transform="translate(-225.48 -114.34)"/><path class="cls-4" d="M617,489.22l-2.76-1.65.08-.69,2.76,1.66Z" transform="translate(-225.48 -114.34)"/><path class="cls-4" d="M621,491.64,618.24,490l.08-.68,2.76,1.66Z" transform="translate(-225.48 -114.34)"/><path class="cls-4" d="M625,494.05l-2.76-1.65.08-.69,2.76,1.66Z" transform="translate(-225.48 -114.34)"/><path class="cls-4" d="M629,496.47l-2.76-1.66.08-.68,2.76,1.66Z" transform="translate(-225.48 -114.34)"/><path class="cls-4" d="M633.06,498.88l-2.76-1.65.08-.69,2.76,1.66Z" transform="translate(-225.48 -114.34)"/><path class="cls-4" d="M637.08,501.3l-2.76-1.66.08-.68,2.76,1.66Z" transform="translate(-225.48 -114.34)"/><path class="cls-4" d="M641.1,503.71l-2.76-1.65.08-.68,2.76,1.65Z" transform="translate(-225.48 -114.34)"/></g><g id="profile_pic" class="cls-8"><ellipse class="cls-9" cx="598" cy="347" rx="22.98" ry="40.61" transform="translate(-318.02 266.72) rotate(-32.95)"/><path class="cls-10" d="M615.88,371.05a41.16,41.16,0,0,0-4.46-6.28,10.1,10.1,0,0,0,2.33-6.27c.64-9-5.9-21.48-14.6-27.8s-16.27-4.13-16.9,4.9a26.19,26.19,0,0,0,2.08,11.19c-8.25-1.56-11.09,3.44-6.21,12.16,5.42,9.66,18.27,20.2,28.69,23.54S621.29,380.71,615.88,371.05Z" transform="translate(-225.48 -114.34)"/></g><path id="Profile_back2" class="cls-11" d="M379,448.68l-117.64-70c-7-4.14-12.39-12.22-12.09-18l9.48-181.84c.3-5.82,6.21-7.17,13.18-3l117.65,70c7,4.15,12.39,12.23,12.08,18l-9.48,181.84C391.84,451.47,385.94,452.82,379,448.68Z" transform="translate(-225.48 -114.34)"/><g id="profile_pic2" class="cls-8"><ellipse class="cls-12" cx="320" cy="267" rx="22.98" ry="40.61" transform="translate(-319.22 102.65) rotate(-32.95)"/><path class="cls-10" d="M337.88,291.05a41.16,41.16,0,0,0-4.46-6.28,10.1,10.1,0,0,0,2.33-6.27c.64-9-5.9-21.48-14.6-27.8s-16.27-4.13-16.9,4.9a26.19,26.19,0,0,0,2.08,11.19c-8.25-1.56-11.09,3.44-6.21,12.16,5.42,9.66,18.27,20.2,28.69,23.54S343.29,300.71,337.88,291.05Z" transform="translate(-225.48 -114.34)"/></g><g id="icons" class="cls-13"><path class="cls-14" d="M277.85,324.93V324c0-2.37.82-4.24,2.9-4.56a5.48,5.48,0,0,1,3.7.83,9.59,9.59,0,0,1,2.67,2.93,1.42,1.42,0,0,1,.2,1.3,1,1,0,0,1-.79.5c-.37,0-.63-.28-1-.74a11.4,11.4,0,0,0-2.67-3.22c-2.44-1.71-2.44,1.62-2.44,4.13v1.55L284,329.2c.2.43,0,1.14-.33,1.12l-3.16-2.22v9.54c0,2.38.36,2.67,2.83,4.66v.93l-7.75-5.43v-.93c2.08,1.26,2.31,1.29,2.31-.86v-9.73l-2.34-1.64-.14-.46.73-.48Z" transform="translate(-225.48 -114.34)"/><path class="cls-14" d="M352.77,374.6c0,.87-.61,1.16-1.63.45a3.65,3.65,0,0,1-1.54-2.67c0-.87.66-1.13,1.59-.47A3.64,3.64,0,0,1,352.77,374.6Zm-2.85,16v-14l2.53,1.78v14Z" transform="translate(-225.48 -114.34)"/><path class="cls-14" d="M356.7,385.11c0-1.46-.05-2.66-.11-3.87l2.25,1.58.14,2.4.07,0c.69-.83,2.32-1,4.64.62a11.78,11.78,0,0,1,4.94,9.44v8.37l-2.54-1.78v-8.08a7.64,7.64,0,0,0-3.24-6.44c-1.67-1.17-3-.9-3.43.21a2.77,2.77,0,0,0-.18,1.06v8.46l-2.54-1.78Z" transform="translate(-225.48 -114.34)"/><path class="cls-15" d="M326.67,352.26l3.61,2.35.77,22-3.77-2.44-.57-16.47.22,1.09-6.34,8.05-2.68-1.75-7.2-16.54.14-1.15.58,16.47-3.76-2.44-.77-22,3.61,2.35,8.59,19.77Z" transform="translate(-225.48 -114.34)"/></g><g id="screen3"><path class="cls-16" d="M600,593.94l12.94-246c.29-5.51-3.3-12.3-8-15.16L247.05,116.11c-4.72-2.86-8.77-.71-9,4.81l-12,245c-.27,5.52,3.33,12.32,8,15.19L591,598.72C595.68,601.6,599.74,599.46,600,593.94Z" transform="translate(-225.48 -114.34)"/><g class="cls-3"><polygon class="cls-4" points="165.28 364.55 243.7 412.36 201.63 112.96 123.25 65.52 165.28 364.55"/><polygon class="cls-4" points="264.89 151.26 240.48 136.48 282.58 436.06 307.01 450.95 264.89 151.26"/><path class="cls-4" d="M258.82,398.46l49.28,30-42-298.64-21.08-12.75c-4.72-2.86-8.77-.71-9,4.81l-4.15,84.68Z" transform="translate(-225.48 -114.34)"/><path class="cls-4" d="M603,333.75l-38.9-23.55,35.62,253.46L611,348.91C611.26,343.4,607.67,336.61,603,333.75Z" transform="translate(-225.48 -114.34)"/></g></g></svg>